<svg xmlns="http://www.w3.org/2000/svg" viewBox="0 0 256 256" role="img" aria-label="Rejoin BI Platform">
  <defs>
    <linearGradient id="bg" x1="36" y1="30" x2="218" y2="226" gradientUnits="userSpaceOnUse">
      <stop offset="0" stop-color="#062b4f"/>
      <stop offset="0.52" stop-color="#004090"/>
      <stop offset="1" stop-color="#18b7aa"/>
    </linearGradient>
    <linearGradient id="line" x1="62" y1="176" x2="196" y2="78" gradientUnits="userSpaceOnUse">
      <stop offset="0" stop-color="#25d366"/>
      <stop offset="1" stop-color="#6ee7f9"/>
    </linearGradient>
  </defs>
  <rect width="256" height="256" rx="56" fill="#07111f"/>
  <rect x="18" y="18" width="220" height="220" rx="46" fill="url(#bg)"/>
  <path d="M67 174V91c0-10 8-18 18-18h46c42 0 68 24 68 61s-26 61-68 61H86c-10 0-19-9-19-21Z" fill="#fff" opacity=".94"/>
  <path d="M97 164V104h35c20 0 32 11 32 30 0 18-12 30-32 30H97Z" fill="#07111f"/>
  <path d="M94 174c24-4 45-13 63-27 18-15 30-33 37-54" fill="none" stroke="url(#line)" stroke-width="14" stroke-linecap="round"/>
  <circle cx="94" cy="174" r="10" fill="#25d366"/>
  <circle cx="157" cy="147" r="10" fill="#9ff6ea"/>
  <circle cx="194" cy="93" r="10" fill="#6ee7f9"/>
</svg>
